<svg width="55" height="55" viewBox="0 0 55 55" fill="none" xmlns="http://www.w3.org/2000/svg">
<path d="M42.8314 23.5843V11.5239H31.5601V16.0325H38.3229V22.0063L30.478 31.8124H22.543V20.541H4.50879V36.3209H9.01734C9.01734 40.063 12.0381 43.0837 15.7802 43.0837C19.5223 43.0837 22.543 40.063 22.543 36.3209H32.6421L42.8314 23.5843ZM15.7802 38.5752C14.5403 38.5752 13.5259 37.5608 13.5259 36.3209H18.0344C18.0344 37.5608 17.02 38.5752 15.7802 38.5752Z" fill="#084C3F"/>
<path d="M11.2715 13.7783H22.5429V18.2869H11.2715V13.7783ZM42.8313 29.5582C39.0892 29.5582 36.0685 32.579 36.0685 36.3211C36.0685 40.0632 39.0892 43.0839 42.8313 43.0839C46.5734 43.0839 49.5941 40.0632 49.5941 36.3211C49.5941 32.579 46.5734 29.5582 42.8313 29.5582ZM42.8313 38.5753C41.5915 38.5753 40.577 37.5609 40.577 36.3211C40.577 35.0812 41.5915 34.0668 42.8313 34.0668C44.0712 34.0668 45.0856 35.0812 45.0856 36.3211C45.0856 37.5609 44.0712 38.5753 42.8313 38.5753Z" fill="#084C3F"/>
</svg>
