<svg width="25" height="25" viewBox="0 0 25 25" fill="none" xmlns="http://www.w3.org/2000/svg">
<path d="M23.3507 0.979004H2.25055C1.52802 0.979004 0.941406 1.56445 0.941406 2.28814V23.3883C0.941406 24.112 1.52802 24.6982 2.25055 24.6982H13.6102V15.5127H10.5194V11.9325H13.6102V9.29236C13.6102 6.22923 15.4806 4.56039 18.2137 4.56039C19.524 4.56039 20.6476 4.65842 20.9753 4.70099V7.90276L19.0796 7.90354C17.5935 7.90354 17.3068 8.61006 17.3068 9.6462V11.9313H20.8523L20.3887 15.5112H17.3064V24.697H23.3503C24.0736 24.697 24.6606 24.11 24.6606 23.3883V2.28736C24.6602 1.56445 24.074 0.979004 23.3507 0.979004Z" fill="#084C3F"/>
</svg>
