<svg width="25" height="26" viewBox="0 0 25 26" fill="none" xmlns="http://www.w3.org/2000/svg">
<path d="M24.4646 8.11192C24.4077 6.82282 24.1993 5.93657 23.9006 5.16863C23.5926 4.35348 23.1186 3.62367 22.4977 3.01698C21.891 2.40085 21.1564 1.92209 20.3507 1.61883C19.5783 1.32021 18.6967 1.11175 17.4076 1.05491C16.1088 0.993259 15.6965 0.979004 12.4026 0.979004C9.10866 0.979004 8.69636 0.993259 7.40245 1.0501C6.11335 1.10693 5.2271 1.31558 4.45934 1.61402C3.644 1.92209 2.9142 2.39603 2.30751 3.01698C1.69137 3.62367 1.2128 4.35829 0.909361 5.164C0.610737 5.93657 0.402274 6.81801 0.345437 8.10711C0.283787 9.40584 0.269531 9.81813 0.269531 13.1121C0.269531 16.406 0.283787 16.8183 0.340623 18.1122C0.39746 19.4013 0.606108 20.2876 0.904732 21.0555C1.2128 21.8707 1.69137 22.6005 2.30751 23.2072C2.9142 23.8233 3.64882 24.3021 4.45453 24.6053C5.2271 24.9039 6.10853 25.1124 7.39782 25.1692C8.69155 25.2263 9.10403 25.2403 12.398 25.2403C15.6919 25.2403 16.1042 25.2263 17.3981 25.1692C18.6872 25.1124 19.5735 24.9039 20.3412 24.6053C21.9717 23.9749 23.2608 22.6858 23.8912 21.0555C24.1896 20.2829 24.3983 19.4013 24.4551 18.1122C24.512 16.8183 24.5262 16.406 24.5262 13.1121C24.5262 9.81813 24.5214 9.40584 24.4646 8.11192ZM22.2798 18.0174C22.2276 19.2023 22.0285 19.8421 21.8627 20.2687C21.455 21.3256 20.6161 22.1645 19.5592 22.5721C19.1327 22.738 18.4882 22.937 17.308 22.9891C16.0283 23.0461 15.6445 23.0602 12.4074 23.0602C9.17031 23.0602 8.78171 23.0461 7.50668 22.9891C6.32181 22.937 5.68198 22.738 5.25543 22.5721C4.72945 22.3778 4.25069 22.0697 3.86209 21.6668C3.45924 21.2734 3.15117 20.7995 2.95678 20.2735C2.7909 19.8469 2.59188 19.2023 2.53985 18.0222C2.48283 16.7426 2.46876 16.3586 2.46876 13.1215C2.46876 9.88441 2.48283 9.49581 2.53985 8.22097C2.59188 7.0361 2.7909 6.39627 2.95678 5.96971C3.15117 5.44356 3.45924 4.96498 3.86691 4.57619C4.26013 4.17334 4.73408 3.86527 5.26024 3.67107C5.68679 3.50518 6.33144 3.30616 7.51149 3.25395C8.79115 3.19712 9.17512 3.18286 12.412 3.18286C15.654 3.18286 16.0377 3.19712 17.3128 3.25395C18.4976 3.30616 19.1375 3.50518 19.564 3.67107C20.09 3.86527 20.5688 4.17334 20.9574 4.57619C21.3602 4.96961 21.6683 5.44356 21.8627 5.96971C22.0285 6.39627 22.2276 7.04072 22.2798 8.22097C22.3366 9.50062 22.3509 9.88441 22.3509 13.1215C22.3509 16.3586 22.3366 16.7378 22.2798 18.0174Z" fill="#084C3F"/>
<path d="M12.4023 6.88086C8.96159 6.88086 6.16992 9.67234 6.16992 13.1133C6.16992 16.5542 8.96159 19.3457 12.4023 19.3457C15.8433 19.3457 18.6348 16.5542 18.6348 13.1133C18.6348 9.67234 15.8433 6.88086 12.4023 6.88086ZM12.4023 17.1561C10.1702 17.1561 8.35952 15.3456 8.35952 13.1133C8.35952 10.8809 10.1702 9.07046 12.4023 9.07046C14.6347 9.07046 16.4451 10.8809 16.4451 13.1133C16.4451 15.3456 14.6347 17.1561 12.4023 17.1561Z" fill="#084C3F"/>
<path d="M20.3359 6.63223C20.3359 7.43572 19.6844 8.08721 18.8808 8.08721C18.0773 8.08721 17.4258 7.43572 17.4258 6.63223C17.4258 5.82855 18.0773 5.17725 18.8808 5.17725C19.6844 5.17725 20.3359 5.82855 20.3359 6.63223Z" fill="#084C3F"/>
</svg>
