<svg width="55" height="55" viewBox="0 0 55 55" fill="none" xmlns="http://www.w3.org/2000/svg">
<path d="M45 20.6804C45 34.044 27 45.4985 27 45.4985C27 45.4985 9 34.044 9 20.6804C9 16.1235 10.8964 11.7532 14.2721 8.53097C17.6477 5.30876 22.2261 3.49854 27 3.49854C31.7739 3.49854 36.3523 5.30876 39.7279 8.53097C43.1036 11.7532 45 16.1235 45 20.6804Z" fill="#084C3F"/>
<path d="M27.5 26.4985C30.5376 26.4985 33 24.0361 33 20.9985C33 17.961 30.5376 15.4985 27.5 15.4985C24.4624 15.4985 22 17.961 22 20.9985C22 24.0361 24.4624 26.4985 27.5 26.4985Z" fill="white"/>
</svg>
