<svg width="233" height="71" viewBox="0 0 233 71" fill="none" xmlns="http://www.w3.org/2000/svg">
<path d="M17.6351 7.00056C26.5567 3.83494 33.8447 2.31543 39.5621 2.56868C45.2794 2.82193 48.2324 4.72131 48.5465 8.33013C48.7978 11.9389 46.2847 13.5218 40.9443 13.1419C35.6039 12.762 29.9494 13.8383 23.9179 16.3075C17.8864 18.84 15.8131 22.1323 17.8236 26.2476C19.8341 30.3629 23.9179 35.6178 30.2635 41.9491C36.5463 48.3437 38.8082 54.3584 36.9861 59.9932C35.1641 65.628 29.5096 69.0469 19.8969 70.3131C10.2842 71.5161 4.37836 70.8829 2.17937 68.2871C-0.0196107 65.6913 -0.396579 63.8552 1.04847 62.6523C2.49351 61.4494 5.25795 61.0695 9.21612 61.576C13.2371 62.0192 16.4413 61.576 18.8916 60.1831C21.3419 58.7902 22.2215 57.2074 21.6561 55.498C21.0278 53.7252 16.8811 49.7365 9.02763 43.4686C1.23695 37.074 -1.52749 30.2363 0.797154 22.8287C3.12179 15.4844 8.77632 10.1662 17.6351 7.00056Z" fill="#084C3F"/>
<path d="M82.0983 24.3499C83.7318 25.3629 84.4857 26.5026 84.3601 27.8321L84.2972 28.1487C84.2344 28.9085 82.7894 32.8338 80.0249 39.9248L79.8364 41.381C79.9621 43.407 81.2815 44.61 83.8574 44.9265C87.69 45.6863 89.5748 46.5093 89.6376 47.2691C89.7633 47.2691 89.7633 47.459 89.7633 47.7756C89.512 50.3081 85.3653 51.8276 77.3233 52.3974C72.6112 51.0678 69.9096 49.6117 69.3441 48.0288C59.6686 53.3471 52.569 55.8163 48.0454 55.3098L46.4119 55.1198C42.8307 54.74 40.6317 52.5873 39.8149 48.5987C39.6893 47.649 39.6264 46.8259 39.7521 46.1295C40.3804 39.4816 46.6004 33.1504 58.3492 27.1357C64.6949 24.6032 70.6635 23.6535 76.3181 24.2233C78.2029 24.7931 79.1453 25.1097 79.1453 25.173C80.4019 24.5399 81.4072 24.2233 82.0983 24.3499ZM53.2601 43.9135L54.391 44.0401C57.9094 44.42 62.4959 43.0905 68.2132 40.2414L68.2761 39.7349C68.5274 38.7852 69.7839 36.2527 71.9201 32.0741C68.2132 32.264 64.4436 33.467 60.7367 35.6829C58.6634 36.6326 57.0927 38.0255 55.9618 39.7349C55.145 40.1781 54.2654 41.571 53.2601 43.9135Z" fill="#084C3F"/>
<path d="M108.045 0.165039H108.296C109.427 0.165039 110.558 2.38098 111.689 6.87617C112.82 11.3081 109.364 26.1232 101.322 51.195L98.4323 62.1481C98.4951 63.2877 98.5579 64.2374 98.5579 64.9338L98.4951 65.1871C98.4951 67.2131 97.4899 68.2261 95.5422 68.2261C92.6521 68.2261 90.9557 62.8445 90.4531 52.1447C90.5788 44.1673 93.1547 33.7207 98.181 20.8049C103.459 9.78855 106.286 3.14073 106.663 0.92479C107.04 0.418289 107.542 0.165039 108.045 0.165039Z" fill="#084C3F"/>
<path d="M132.737 24.6033C139.899 24.4767 143.857 25.4897 144.548 27.5157C145.239 29.605 145.239 31.7577 144.548 34.0369C143.857 36.3162 142.098 38.912 139.145 41.6977C136.255 44.5468 130.601 46.6361 122.244 48.029C122.37 51.9544 125.637 52.9041 132.046 51.068C138.454 49.1686 142.726 48.029 144.8 47.5858C146.873 47.1426 147.69 47.7757 147.376 49.4852C146.999 51.1946 143.732 53.6638 137.449 56.8928C131.229 60.1217 124.443 60.8815 117.218 59.1087C109.993 57.3359 107.417 51.8278 109.49 42.5841C111.626 33.3405 119.354 27.3258 132.737 24.6033ZM121.679 41.5078L122.182 42.8374C132.8 38.912 137.574 35.8097 136.444 33.4038C135.313 30.9979 132.925 30.6814 129.218 32.4541C125.574 34.2269 123.061 37.2025 121.679 41.5078Z" fill="#084C3F"/>
<path d="M157.743 51.4477C156.109 56.4494 154.915 59.8049 154.162 61.451C152.779 63.0339 151.209 64.0469 149.512 64.4901C148.758 64.7433 148.193 64.8699 147.879 64.8699C145.931 64.8699 144.737 63.5404 144.172 60.8179C143.921 59.0452 143.795 58.0322 143.795 57.7789C143.795 55.0565 145.491 49.3583 148.821 40.6845C152.151 32.0107 155.355 24.6664 158.308 18.5251C159.879 15.5494 162.392 11.814 165.785 7.3188C167.544 5.67267 168.675 4.84961 169.24 4.84961C170.183 5.03955 170.623 5.48274 170.623 6.17917V8.26849C170.623 11.9406 168.801 18.3352 165.156 27.3889C165.094 27.5155 164.78 28.4652 164.214 30.1746L162.832 34.6698C166.099 31.5042 169.052 29.0983 171.691 27.4522C173.764 26.1859 176.591 24.8564 180.172 23.3369C181.806 22.957 182.748 22.8937 183.062 23.0836C183.502 23.5268 183.565 23.97 183.314 24.4132L182.497 25.7428C181.052 28.022 177.534 31.1876 172.005 35.4296C171.879 35.4929 171.376 35.9361 170.371 36.7591L164.34 42.9638C164.214 43.0904 164.088 43.217 163.963 43.3437C165.408 44.9898 167.041 46.8892 168.863 49.0418C176.089 57.8422 181.932 63.9202 186.455 67.3391L187.209 68.8586C187.398 69.3651 187.272 69.8716 186.707 70.3781C186.33 70.5681 185.261 70.4414 183.502 69.9349C179.104 68.732 175.46 67.0859 172.445 64.9965C169.429 62.9072 165.471 59.425 160.444 54.6133C159.439 53.4104 158.56 52.3974 157.743 51.4477Z" fill="#084C3F"/>
<path d="M201.973 59.9931C198.894 60.2463 195.753 59.9298 192.486 59.17C185.261 57.4606 182.685 51.9524 184.758 42.6454C186.831 33.3385 194.559 27.3871 207.941 24.6647H208.13C211.648 24.0949 215.355 24.2215 219.188 24.9812C226.476 26.5007 229.177 31.9456 227.355 41.3159C225.533 50.6228 217.994 56.8908 204.674 59.9931C203.732 59.9931 202.79 59.9931 201.973 59.9931ZM205.428 52.8388C211.585 51.066 215.104 47.5205 215.921 42.2656C216.737 36.9473 215.481 33.9083 212.151 33.0219C210.392 32.5787 208.695 32.5154 206.999 32.832H206.936C200.716 34.3515 197.135 37.7704 196.193 43.0253C195.25 48.2803 196.444 51.4459 199.774 52.3956C201.282 52.8388 202.79 53.0287 204.172 52.9021C204.549 52.8388 204.926 52.8388 205.428 52.8388Z" fill="#084C3F"/>
<path d="M221.449 18.8444L220.255 19.0977C219.689 18.9077 219.375 18.5912 219.313 18.2113V18.0847C219.124 16.945 220.883 12.1966 224.527 3.83934C225.407 2.00328 226.224 0.99028 227.04 0.800342C226.978 0.610405 227.543 0.420467 228.674 0.167217C230.433 0.0405923 231.501 0.610405 231.752 1.81334L232.192 3.71272C232.506 5.23222 231.69 7.89134 229.679 11.7534C227.543 14.096 225.344 16.122 222.957 17.7681C222.454 17.8947 221.951 18.2746 221.449 18.8444Z" fill="#084C3F"/>
<path d="M70.7214 17.7028C68.3967 16.0567 66.1349 14.0307 63.9988 11.6881C61.9883 7.82607 61.1087 5.10363 61.4856 3.64744L61.9254 1.74806C62.2396 0.545123 63.2448 0.0386216 65.004 0.101934C66.1349 0.355185 66.7004 0.608435 66.6375 0.735061C67.3915 0.924998 68.2711 1.938 69.1507 3.77407C72.8575 12.1946 74.5539 16.9431 74.3654 18.0194V18.146C74.2397 18.5259 73.9256 18.8425 73.423 19.0324L72.2292 18.7792C71.7894 18.2727 71.2868 17.8928 70.7214 17.7028Z" fill="#084C3F"/>
<path d="M126.264 17.7028C123.94 16.0567 121.678 14.0307 119.542 11.6881C117.531 7.82607 116.652 5.10363 117.029 3.64744L117.468 1.74806C117.783 0.545123 118.788 0.0386216 120.547 0.101934C121.678 0.355185 122.243 0.608435 122.181 0.735061C122.934 0.924998 123.814 1.938 124.694 3.77407C128.4 12.1946 130.097 16.9431 129.908 18.0194V18.146C129.783 18.5259 129.469 18.8425 128.966 19.0324L127.772 18.7792C127.332 18.2727 126.83 17.8928 126.264 17.7028Z" fill="#084C3F"/>
</svg>
