<svg width="337" height="149" viewBox="0 0 337 149" fill="none" xmlns="http://www.w3.org/2000/svg">
<path d="M28.7368 10.434C41.5209 5.93909 51.9643 3.78154 60.1569 4.14113C68.3495 4.50072 72.5809 7.19765 73.031 12.3218C73.3911 17.446 69.79 19.6934 62.1375 19.154C54.4851 18.6147 46.3825 20.1429 37.7397 23.6489C29.0969 27.2448 26.126 31.9195 29.0069 37.7629C31.8878 43.6062 37.7397 51.0677 46.8326 60.0575C55.8355 69.1371 59.0765 77.6774 56.4657 85.6783C53.8549 93.6792 45.7523 98.5337 31.9779 100.332C18.2034 102.04 9.74072 101.141 6.58971 97.4549C3.4387 93.7691 2.89852 91.162 4.96919 89.454C7.03985 87.7459 11.0011 87.2066 16.6729 87.9257C22.4348 88.555 27.0263 87.9257 30.5374 85.948C34.0485 83.9702 35.3089 81.7228 34.4987 79.2956C33.5984 76.7784 27.6565 71.1149 16.4029 62.215C5.23927 53.1353 1.278 43.4264 4.60907 32.9084C7.94014 22.4803 16.0427 14.9288 28.7368 10.434Z" fill="#084C3F"/>
<path d="M121.106 35.0669C123.446 36.5053 124.527 38.1234 124.347 40.0113L124.257 40.4608C124.167 41.5395 122.096 47.1132 118.135 57.1817L117.865 59.2494C118.045 62.1261 119.935 63.8342 123.627 64.2836C129.118 65.3624 131.819 66.5311 131.909 67.6099C132.089 67.6099 132.089 67.8796 132.089 68.329C131.729 71.9249 125.787 74.0825 114.264 74.8916C107.511 73.0037 103.64 70.9361 102.83 68.6886C88.9654 76.24 78.7922 79.746 72.3101 79.0269L69.9693 78.7572C64.8377 78.2178 61.6867 75.1613 60.5163 69.4977C60.3362 68.1492 60.2462 66.9806 60.4263 65.9917C61.3266 56.5525 70.2394 47.5627 87.0748 39.0224C96.1677 35.4265 104.72 34.078 112.823 34.8871C115.524 35.6962 116.874 36.1457 116.874 36.2356C118.675 35.3366 120.115 34.8871 121.106 35.0669ZM79.7825 62.8453L81.403 63.0251C86.4446 63.5645 93.0167 61.6766 101.209 57.6312L101.299 56.912C101.66 55.5636 103.46 51.9677 106.521 46.0344C101.209 46.3041 95.8076 48.0122 90.4959 51.1586C87.525 52.5071 85.2742 54.4848 83.6537 56.912C82.4834 57.5413 81.2229 59.5191 79.7825 62.8453Z" fill="#084C3F"/>
<path d="M158.288 0.725586H158.648C160.269 0.725586 161.889 3.872 163.51 10.2547C165.13 16.5476 160.179 37.5836 148.655 73.1831L144.514 88.7354C144.604 90.3535 144.694 91.702 144.694 92.6909L144.604 93.0505C144.604 95.9272 143.163 97.3655 140.372 97.3655C136.231 97.3655 133.8 89.7242 133.08 74.5315C133.26 63.2044 136.951 48.3713 144.154 30.0322C151.716 14.39 155.767 4.95077 156.308 1.80436C156.848 1.08518 157.568 0.725586 158.288 0.725586Z" fill="#084C3F"/>
<path d="M193.67 35.4252C203.933 35.2454 209.605 36.6837 210.595 39.5605C211.585 42.5271 211.585 45.5836 210.595 48.8199C209.605 52.0562 207.084 55.742 202.853 59.6975C198.711 63.7429 190.609 66.7095 178.635 68.6873C178.815 74.2609 183.496 75.6094 192.679 73.0024C201.862 70.3054 207.984 68.6873 210.955 68.058C213.926 67.4287 215.096 68.3277 214.646 70.7549C214.106 73.1822 209.425 76.6882 200.422 81.273C191.509 85.8577 181.786 86.9365 171.432 84.4194C161.079 81.9022 157.388 74.0812 160.359 60.9561C163.42 47.831 174.493 39.2908 193.67 35.4252ZM177.824 59.4278L178.545 61.3157C193.76 55.742 200.602 51.337 198.981 47.9209C197.361 44.5048 193.94 44.0553 188.628 46.5725C183.406 49.0896 179.805 53.3148 177.824 59.4278Z" fill="#084C3F"/>
<path d="M229.502 73.5426C227.161 80.6445 225.451 85.4091 224.37 87.7464C222.39 89.9939 220.139 91.4322 217.708 92.0615C216.628 92.4211 215.818 92.6009 215.368 92.6009C212.577 92.6009 210.866 90.713 210.056 86.8474C209.696 84.3303 209.516 82.8919 209.516 82.5324C209.516 78.6668 211.946 70.576 216.718 58.26C221.489 45.944 226.081 35.5159 230.312 26.7958C232.563 22.5706 236.164 17.2667 241.026 10.8839C243.547 8.5466 245.167 7.37793 245.977 7.37793C247.328 7.64762 247.958 8.27691 247.958 9.26578V12.2324C247.958 17.4465 245.347 26.5261 240.125 39.3815C240.035 39.5613 239.585 40.9097 238.775 43.337L236.794 49.7197C241.476 45.2248 245.707 41.8087 249.488 39.4714C252.459 37.6734 256.511 35.7856 261.642 33.628C263.983 33.0887 265.334 32.9988 265.784 33.2684C266.414 33.8977 266.504 34.527 266.144 35.1563L264.973 37.0441C262.903 40.2805 257.861 44.7753 249.939 50.7985C249.759 50.8884 249.038 51.5177 247.598 52.6863L238.955 61.4963C238.775 61.6761 238.595 61.8559 238.415 62.0357C240.486 64.373 242.826 67.07 245.437 70.1265C255.79 82.6223 264.163 91.2524 270.645 96.1069L271.726 98.2644C271.996 98.9836 271.816 99.7028 271.005 100.422C270.465 100.692 268.935 100.512 266.414 99.7927C260.112 98.0846 254.89 95.7473 250.569 92.7807C246.247 89.8141 240.576 84.8697 233.373 78.0375C231.933 76.3294 230.672 74.8911 229.502 73.5426Z" fill="#084C3F"/>
<path d="M292.882 85.6784C288.471 86.038 283.969 85.5885 279.288 84.5097C268.935 82.0825 265.243 74.2614 268.214 61.0464C271.185 47.8315 282.259 39.3811 301.435 35.5155H301.705C306.747 34.7064 312.058 34.8862 317.55 35.965C327.994 38.1225 331.865 45.8537 329.254 59.1586C326.643 72.3735 315.84 81.2734 296.754 85.6784C295.403 85.6784 294.053 85.6784 292.882 85.6784ZM297.834 75.52C306.657 73.0028 311.698 67.9686 312.869 60.5071C314.039 52.9557 312.239 48.6406 307.467 47.382C304.946 46.7527 302.515 46.6628 300.085 47.1123H299.995C291.082 49.2698 285.95 54.1243 284.6 61.5858C283.249 69.0473 284.96 73.5422 289.731 74.8907C291.892 75.52 294.053 75.7896 296.033 75.6098C296.573 75.52 297.114 75.52 297.834 75.52Z" fill="#084C3F"/>
<path d="M320.79 27.2446L319.079 27.6042C318.269 27.3345 317.819 26.885 317.729 26.3456V26.1658C317.459 24.5477 319.979 17.8053 325.201 5.93884C326.461 3.33181 327.632 1.89345 328.802 1.62376C328.712 1.35406 329.522 1.08437 331.143 0.724781C333.664 0.544986 335.194 1.35406 335.554 3.06212L336.185 5.75905C336.635 7.91659 335.464 11.6923 332.583 17.176C329.522 20.5023 326.371 23.379 322.95 25.7163C322.23 25.8961 321.51 26.4355 320.79 27.2446Z" fill="#084C3F"/>
<path d="M104.811 25.626C101.48 23.2886 98.2394 20.4119 95.1784 17.0857C92.2975 11.6019 91.0371 7.73633 91.5772 5.66868L92.2074 2.97175C92.6576 1.2637 94.098 0.544516 96.6189 0.634414C98.2394 0.994005 99.0496 1.3536 98.9596 1.53339C100.04 1.80308 101.3 3.24145 102.561 5.84848C107.872 17.8049 110.303 24.5472 110.033 26.0754V26.2552C109.853 26.7946 109.403 27.2441 108.683 27.5138L106.972 27.1542C106.342 26.435 105.622 25.8956 104.811 25.626Z" fill="#084C3F"/>
<path d="M184.397 25.626C181.066 23.2886 177.825 20.4119 174.764 17.0857C171.883 11.6019 170.623 7.73633 171.163 5.66868L171.793 2.97175C172.244 1.2637 173.684 0.544516 176.205 0.634414C177.825 0.994005 178.636 1.3536 178.546 1.53339C179.626 1.80308 180.886 3.24145 182.147 5.84848C187.458 17.8049 189.889 24.5472 189.619 26.0754V26.2552C189.439 26.7946 188.989 27.2441 188.269 27.5138L186.558 27.1542C185.928 26.435 185.208 25.8956 184.397 25.626Z" fill="#084C3F"/>
<path d="M1.23724 138.631L5.77874 115.889H11.8456C14.0413 115.889 15.7631 116.316 17.0112 117.171C18.2592 118.027 18.8832 119.275 18.8832 120.916C18.8832 121.932 18.629 122.834 18.1205 123.62C17.6352 124.405 16.9996 125.053 16.2138 125.561C15.4511 126.07 14.6537 126.416 13.8217 126.601L13.787 126.74C14.9657 127.017 15.9596 127.537 16.7685 128.3C17.5774 129.039 17.9819 130.056 17.9819 131.351C17.9819 133.038 17.5658 134.424 16.7338 135.511C15.9249 136.574 14.804 137.36 13.371 137.868C11.9381 138.377 10.3202 138.631 8.51751 138.631H1.23724ZM6.50677 125.665H9.76556C11.9381 125.665 13.5444 125.261 14.5844 124.452C15.6244 123.62 16.1445 122.568 16.1445 121.297C16.1445 120.257 15.74 119.448 14.9311 118.87C14.1453 118.292 12.8972 118.003 11.1869 118.003H8.03216L6.50677 125.665ZM4.32269 136.516H8.27483C10.4474 136.516 12.1692 136.123 13.4404 135.337C14.7115 134.528 15.3471 133.246 15.3471 131.489C15.3471 130.334 14.8964 129.409 13.995 128.716C13.1168 127.999 11.8341 127.641 10.1469 127.641H6.12542L4.32269 136.516ZM26.1638 139.047C24.7539 139.047 23.737 138.666 23.113 137.903C22.489 137.14 22.1769 136.123 22.1769 134.852C22.1769 134.459 22.2001 134.089 22.2463 133.743C22.2925 133.373 22.3618 132.968 22.4543 132.529L24.6037 121.782H27.2731L25.1584 132.183C25.0659 132.622 24.9966 132.992 24.9504 133.292C24.9042 133.569 24.881 133.858 24.881 134.159C24.881 135.892 25.7131 136.759 27.3771 136.759C28.0474 136.759 28.787 136.516 29.5959 136.031C30.4279 135.545 31.3524 134.771 32.3693 133.708L34.7614 121.782H37.3962L34.0334 138.631H31.8493L32.1266 136.065H31.988C31.0635 136.874 30.1159 137.579 29.1452 138.18C28.1745 138.758 27.1807 139.047 26.1638 139.047ZM38.3433 145.876C38.1122 145.876 37.8117 145.83 37.4419 145.738C37.0722 145.668 36.7255 145.553 36.4019 145.391L37.2686 143.415C37.6846 143.623 38.1006 143.727 38.5167 143.727C39.3718 143.727 40.1692 143.369 40.9087 142.652C41.6714 141.959 42.3417 141.035 42.9195 139.879L43.5435 138.666L40.6661 121.782H43.3008L44.6182 131.247C44.7338 132.009 44.8378 132.841 44.9302 133.743C45.0227 134.621 45.1036 135.465 45.1729 136.273H45.3116C45.7045 135.465 46.1089 134.621 46.5249 133.743C46.9641 132.864 47.3916 132.032 47.8077 131.247L52.6612 121.782H55.2959L45.3809 140.052C44.8031 141.139 44.1675 142.121 43.4742 142.999C42.8039 143.9 42.0528 144.605 41.2208 145.114C40.3887 145.622 39.4296 145.876 38.3433 145.876ZM62.2447 138.631L66.7862 115.889H72.8531C75.0487 115.889 76.7706 116.316 78.0186 117.171C79.2666 118.027 79.8907 119.275 79.8907 120.916C79.8907 121.932 79.6364 122.834 79.128 123.62C78.6426 124.405 78.007 125.053 77.2212 125.561C76.4585 126.07 75.6612 126.416 74.8292 126.601L74.7945 126.74C75.9732 127.017 76.967 127.537 77.7759 128.3C78.5848 129.039 78.9893 130.056 78.9893 131.351C78.9893 133.038 78.5733 134.424 77.7413 135.511C76.9323 136.574 75.8114 137.36 74.3785 137.868C72.9455 138.377 71.3277 138.631 69.525 138.631H62.2447ZM67.5142 125.665H70.773C72.9455 125.665 74.5518 125.261 75.5918 124.452C76.6319 123.62 77.1519 122.568 77.1519 121.297C77.1519 120.257 76.7474 119.448 75.9385 118.87C75.1527 118.292 73.9047 118.003 72.1944 118.003H69.0396L67.5142 125.665ZM65.3301 136.516H69.2823C71.4548 136.516 73.1766 136.123 74.4478 135.337C75.719 134.528 76.3545 133.246 76.3545 131.489C76.3545 130.334 75.9039 129.409 75.0025 128.716C74.1242 127.999 72.8415 127.641 71.1543 127.641H67.1329L65.3301 136.516ZM88.5926 139.047C86.7667 139.047 85.3107 138.446 84.2244 137.244C83.1382 136.042 82.595 134.39 82.595 132.287C82.595 130.692 82.8493 129.236 83.3577 127.918C83.8662 126.578 84.548 125.422 85.4031 124.452C86.2583 123.458 87.229 122.695 88.3152 122.164C89.4015 121.632 90.5224 121.366 91.678 121.366C93.5039 121.366 94.9599 121.967 96.0462 123.169C97.1556 124.371 97.7103 126.023 97.7103 128.126C97.7103 129.721 97.456 131.189 96.9476 132.529C96.4391 133.847 95.7457 135.002 94.8675 135.996C94.0123 136.967 93.0416 137.718 91.9554 138.25C90.8691 138.781 89.7482 139.047 88.5926 139.047ZM88.8699 136.828C89.91 136.828 90.8922 136.447 91.8167 135.684C92.7643 134.921 93.527 133.893 94.1048 132.599C94.7057 131.304 95.0062 129.871 95.0062 128.3C95.0062 126.774 94.6941 125.607 94.0701 124.798C93.4461 123.966 92.5563 123.55 91.4007 123.55C90.3607 123.55 89.3668 123.943 88.4193 124.729C87.4948 125.492 86.7321 126.52 86.1312 127.814C85.5534 129.109 85.2645 130.542 85.2645 132.113C85.2645 133.639 85.5765 134.806 86.2005 135.615C86.8245 136.424 87.7143 136.828 88.8699 136.828ZM100.159 138.631L105.082 113.947H107.752L104.424 130.692H104.493L113.125 121.782H116.176L109.451 128.82L113.507 138.631H110.803L107.578 130.415L103.696 134.367L102.794 138.631H100.159ZM121.162 139.047C119.752 139.047 118.735 138.666 118.111 137.903C117.487 137.14 117.175 136.123 117.175 134.852C117.175 134.459 117.198 134.089 117.245 133.743C117.291 133.373 117.36 132.968 117.453 132.529L119.602 121.782H122.271L120.157 132.183C120.064 132.622 119.995 132.992 119.949 133.292C119.902 133.569 119.879 133.858 119.879 134.159C119.879 135.892 120.711 136.759 122.375 136.759C123.046 136.759 123.785 136.516 124.594 136.031C125.426 135.545 126.351 134.771 127.368 133.708L129.76 121.782H132.394L129.032 138.631H126.848L127.125 136.065H126.986C126.062 136.874 125.114 137.579 124.143 138.18C123.173 138.758 122.179 139.047 121.162 139.047ZM132.856 144.316L132.475 142.722C133.561 142.306 134.428 141.751 135.075 141.058C135.745 140.364 136.161 139.602 136.323 138.77H136.254C135.745 138.77 135.318 138.619 134.971 138.319C134.624 138.018 134.451 137.614 134.451 137.105C134.451 136.528 134.647 136.019 135.04 135.58C135.456 135.118 135.999 134.887 136.67 134.887C137.271 134.887 137.733 135.095 138.056 135.511C138.38 135.927 138.542 136.481 138.542 137.175C138.542 138.862 138.022 140.353 136.982 141.647C135.942 142.941 134.567 143.831 132.856 144.316ZM156.894 139.047C155.346 139.047 153.925 138.712 152.63 138.042C151.336 137.371 150.227 136.366 149.302 135.025L151.278 133.535C151.948 134.528 152.769 135.314 153.74 135.892C154.733 136.47 155.866 136.759 157.137 136.759C158.524 136.759 159.679 136.366 160.604 135.58C161.551 134.794 162.025 133.754 162.025 132.46C162.025 131.628 161.759 130.923 161.228 130.345C160.719 129.767 160.038 129.224 159.182 128.716L156.548 127.121C155.577 126.52 154.745 125.804 154.052 124.972C153.381 124.117 153.046 123.053 153.046 121.782C153.046 120.627 153.347 119.575 153.948 118.627C154.572 117.68 155.415 116.917 156.478 116.339C157.542 115.762 158.755 115.473 160.119 115.473C161.482 115.473 162.719 115.773 163.828 116.374C164.937 116.975 165.85 117.738 166.567 118.662L164.799 120.257C164.221 119.563 163.528 118.986 162.719 118.523C161.91 118.038 160.974 117.795 159.91 117.795C159.055 117.795 158.316 117.98 157.692 118.35C157.091 118.697 156.617 119.147 156.27 119.702C155.947 120.257 155.785 120.846 155.785 121.47C155.785 122.348 156.062 123.065 156.617 123.62C157.195 124.151 157.9 124.671 158.732 125.18L161.367 126.74C162.453 127.387 163.296 128.126 163.897 128.959C164.498 129.767 164.799 130.807 164.799 132.079C164.799 133.419 164.452 134.621 163.759 135.684C163.088 136.724 162.164 137.545 160.985 138.146C159.806 138.746 158.443 139.047 156.894 139.047ZM174.327 139.047C172.34 139.047 170.734 138.434 169.509 137.209C168.307 135.985 167.706 134.251 167.706 132.009C167.706 130.415 167.96 128.97 168.469 127.676C169 126.382 169.694 125.261 170.549 124.313C171.427 123.365 172.398 122.637 173.461 122.129C174.524 121.62 175.61 121.366 176.72 121.366C177.991 121.366 178.996 121.632 179.736 122.164C180.498 122.695 181.053 123.423 181.4 124.348C181.746 125.272 181.92 126.312 181.92 127.468C181.92 128.115 181.85 128.739 181.712 129.34C181.573 129.918 181.446 130.368 181.33 130.692H170.375C170.167 132.148 170.248 133.338 170.618 134.263C170.988 135.187 171.554 135.869 172.317 136.308C173.103 136.724 173.981 136.932 174.952 136.932C175.622 136.932 176.28 136.793 176.928 136.516C177.598 136.216 178.199 135.869 178.73 135.476L179.77 137.244C179.1 137.729 178.291 138.157 177.344 138.527C176.419 138.874 175.414 139.047 174.327 139.047ZM170.653 128.889H179.493C179.539 128.635 179.574 128.369 179.597 128.092C179.643 127.814 179.666 127.526 179.666 127.225C179.666 126.578 179.562 125.977 179.354 125.422C179.146 124.845 178.8 124.382 178.314 124.036C177.852 123.666 177.216 123.481 176.408 123.481C175.183 123.481 174.027 123.978 172.941 124.972C171.855 125.942 171.092 127.248 170.653 128.889ZM186.893 139.047C185.39 139.047 184.639 138.319 184.639 136.863C184.639 136.47 184.709 135.985 184.847 135.407L189.111 113.947H191.781L187.447 135.545C187.424 135.707 187.401 135.846 187.378 135.961C187.378 136.054 187.378 136.135 187.378 136.204C187.378 136.62 187.575 136.828 187.967 136.828C188.037 136.828 188.106 136.828 188.175 136.828C188.245 136.805 188.36 136.77 188.522 136.724L188.557 138.77C188.326 138.862 188.083 138.931 187.829 138.978C187.575 139.024 187.263 139.047 186.893 139.047ZM195.492 139.047C193.99 139.047 193.239 138.319 193.239 136.863C193.239 136.47 193.308 135.985 193.447 135.407L197.711 113.947H200.38L196.047 135.545C196.024 135.707 196 135.846 195.977 135.961C195.977 136.054 195.977 136.135 195.977 136.204C195.977 136.62 196.174 136.828 196.567 136.828C196.636 136.828 196.705 136.828 196.775 136.828C196.844 136.805 196.96 136.77 197.121 136.724L197.156 138.77C196.925 138.862 196.682 138.931 196.428 138.978C196.174 139.024 195.862 139.047 195.492 139.047ZM208.466 138.631L213.008 115.889H219.075C221.27 115.889 222.992 116.316 224.24 117.171C225.488 118.027 226.112 119.275 226.112 120.916C226.112 121.932 225.858 122.834 225.349 123.62C224.864 124.405 224.229 125.053 223.443 125.561C222.68 126.07 221.883 126.416 221.051 126.601L221.016 126.74C222.195 127.017 223.189 127.537 223.997 128.3C224.806 129.039 225.211 130.056 225.211 131.351C225.211 133.038 224.795 134.424 223.963 135.511C223.154 136.574 222.033 137.36 220.6 137.868C219.167 138.377 217.549 138.631 215.746 138.631H208.466ZM213.736 125.665H216.995C219.167 125.665 220.773 125.261 221.813 124.452C222.853 123.62 223.373 122.568 223.373 121.297C223.373 120.257 222.969 119.448 222.16 118.87C221.374 118.292 220.126 118.003 218.416 118.003H215.261L213.736 125.665ZM211.552 136.516H215.504C217.676 136.516 219.398 136.123 220.669 135.337C221.94 134.528 222.576 133.246 222.576 131.489C222.576 130.334 222.125 129.409 221.224 128.716C220.346 127.999 219.063 127.641 217.376 127.641H213.354L211.552 136.516ZM235.369 139.047C233.381 139.047 231.775 138.434 230.55 137.209C229.348 135.985 228.747 134.251 228.747 132.009C228.747 130.415 229.001 128.97 229.51 127.676C230.041 126.382 230.735 125.261 231.59 124.313C232.468 123.365 233.439 122.637 234.502 122.129C235.565 121.62 236.652 121.366 237.761 121.366C239.032 121.366 240.037 121.632 240.777 122.164C241.54 122.695 242.094 123.423 242.441 124.348C242.788 125.272 242.961 126.312 242.961 127.468C242.961 128.115 242.892 128.739 242.753 129.34C242.614 129.918 242.487 130.368 242.372 130.692H231.417C231.209 132.148 231.29 133.338 231.659 134.263C232.029 135.187 232.595 135.869 233.358 136.308C234.144 136.724 235.022 136.932 235.993 136.932C236.663 136.932 237.322 136.793 237.969 136.516C238.639 136.216 239.24 135.869 239.772 135.476L240.812 137.244C240.141 137.729 239.332 138.157 238.385 138.527C237.46 138.874 236.455 139.047 235.369 139.047ZM231.694 128.889H240.534C240.581 128.635 240.615 128.369 240.638 128.092C240.685 127.814 240.708 127.526 240.708 127.225C240.708 126.578 240.604 125.977 240.396 125.422C240.188 124.845 239.841 124.382 239.356 124.036C238.893 123.666 238.258 123.481 237.449 123.481C236.224 123.481 235.068 123.978 233.982 124.972C232.896 125.942 232.133 127.248 231.694 128.889ZM245.23 138.631L248.593 121.782H250.777L250.395 125.006H250.534C251.204 123.989 251.979 123.134 252.857 122.441C253.735 121.724 254.694 121.366 255.734 121.366C256.312 121.366 256.844 121.47 257.329 121.678L256.393 124.036C256.023 123.851 255.538 123.758 254.937 123.758C254.105 123.758 253.25 124.128 252.372 124.868C251.493 125.584 250.696 126.624 249.979 127.988L247.865 138.631H245.23ZM263.57 139.047C261.583 139.047 259.976 138.434 258.752 137.209C257.55 135.985 256.949 134.251 256.949 132.009C256.949 130.415 257.203 128.97 257.711 127.676C258.243 126.382 258.936 125.261 259.792 124.313C260.67 123.365 261.641 122.637 262.704 122.129C263.767 121.62 264.853 121.366 265.962 121.366C267.234 121.366 268.239 121.632 268.979 122.164C269.741 122.695 270.296 123.423 270.643 124.348C270.989 125.272 271.163 126.312 271.163 127.468C271.163 128.115 271.093 128.739 270.955 129.34C270.816 129.918 270.689 130.368 270.573 130.692H259.618C259.41 132.148 259.491 133.338 259.861 134.263C260.231 135.187 260.797 135.869 261.56 136.308C262.345 136.724 263.224 136.932 264.194 136.932C264.865 136.932 265.523 136.793 266.17 136.516C266.841 136.216 267.442 135.869 267.973 135.476L269.013 137.244C268.343 137.729 267.534 138.157 266.586 138.527C265.662 138.874 264.657 139.047 263.57 139.047ZM259.896 128.889H268.736C268.782 128.635 268.817 128.369 268.84 128.092C268.886 127.814 268.909 127.526 268.909 127.225C268.909 126.578 268.805 125.977 268.597 125.422C268.389 124.845 268.043 124.382 267.557 124.036C267.095 123.666 266.459 123.481 265.65 123.481C264.425 123.481 263.27 123.978 262.184 124.972C261.097 125.942 260.335 127.248 259.896 128.889ZM273.431 138.631L278.354 113.947H281.024L277.696 130.692H277.765L286.397 121.782H289.448L282.722 128.82L286.779 138.631H284.075L280.85 130.415L276.968 134.367L276.066 138.631H273.431ZM296.173 139.047C294.185 139.047 292.579 138.434 291.354 137.209C290.152 135.985 289.552 134.251 289.552 132.009C289.552 130.415 289.806 128.97 290.314 127.676C290.846 126.382 291.539 125.261 292.394 124.313C293.273 123.365 294.243 122.637 295.306 122.129C296.37 121.62 297.456 121.366 298.565 121.366C299.836 121.366 300.842 121.632 301.581 122.164C302.344 122.695 302.899 123.423 303.245 124.348C303.592 125.272 303.765 126.312 303.765 127.468C303.765 128.115 303.696 128.739 303.557 129.34C303.419 129.918 303.292 130.368 303.176 130.692H292.221C292.013 132.148 292.094 133.338 292.464 134.263C292.833 135.187 293.4 135.869 294.162 136.308C294.948 136.724 295.826 136.932 296.797 136.932C297.467 136.932 298.126 136.793 298.773 136.516C299.443 136.216 300.044 135.869 300.576 135.476L301.616 137.244C300.946 137.729 300.137 138.157 299.189 138.527C298.265 138.874 297.259 139.047 296.173 139.047ZM292.498 128.889H301.339C301.385 128.635 301.42 128.369 301.443 128.092C301.489 127.814 301.512 127.526 301.512 127.225C301.512 126.578 301.408 125.977 301.2 125.422C300.992 124.845 300.645 124.382 300.16 124.036C299.698 123.666 299.062 123.481 298.253 123.481C297.028 123.481 295.873 123.978 294.786 124.972C293.7 125.942 292.937 127.248 292.498 128.889ZM310.798 139.047C309.318 139.047 308.278 138.689 307.677 137.972C307.077 137.233 306.776 136.343 306.776 135.303C306.776 134.956 306.799 134.632 306.845 134.332C306.892 134.032 306.926 133.731 306.949 133.431L308.926 123.932H306.464L306.845 121.956L309.48 121.782L310.728 117.137H312.982L312.046 121.782H316.31L315.894 123.932H311.56L309.584 133.569C309.515 133.985 309.48 134.401 309.48 134.817C309.48 135.511 309.642 136.031 309.966 136.377C310.289 136.724 310.844 136.897 311.63 136.897C311.953 136.897 312.265 136.84 312.566 136.724C312.866 136.609 313.143 136.493 313.398 136.377L313.987 138.284C313.617 138.446 313.155 138.608 312.6 138.77C312.069 138.954 311.468 139.047 310.798 139.047ZM323.19 139.047C321.202 139.047 319.596 138.434 318.371 137.209C317.169 135.985 316.568 134.251 316.568 132.009C316.568 130.415 316.822 128.97 317.331 127.676C317.862 126.382 318.556 125.261 319.411 124.313C320.289 123.365 321.26 122.637 322.323 122.129C323.386 121.62 324.472 121.366 325.582 121.366C326.853 121.366 327.858 121.632 328.598 122.164C329.361 122.695 329.915 123.423 330.262 124.348C330.609 125.272 330.782 126.312 330.782 127.468C330.782 128.115 330.713 128.739 330.574 129.34C330.435 129.918 330.308 130.368 330.193 130.692H319.238C319.03 132.148 319.11 133.338 319.48 134.263C319.85 135.187 320.416 135.869 321.179 136.308C321.965 136.724 322.843 136.932 323.814 136.932C324.484 136.932 325.143 136.793 325.79 136.516C326.46 136.216 327.061 135.869 327.593 135.476L328.633 137.244C327.962 137.729 327.153 138.157 326.206 138.527C325.281 138.874 324.276 139.047 323.19 139.047ZM319.515 128.889H328.355C328.401 128.635 328.436 128.369 328.459 128.092C328.505 127.814 328.529 127.526 328.529 127.225C328.529 126.578 328.425 125.977 328.217 125.422C328.009 124.845 327.662 124.382 327.177 124.036C326.714 123.666 326.079 123.481 325.27 123.481C324.045 123.481 322.889 123.978 321.803 124.972C320.717 125.942 319.954 127.248 319.515 128.889Z" fill="#606B6B"/>
</svg>
