<svg width="29" height="25" viewBox="0 0 29 25" fill="none" xmlns="http://www.w3.org/2000/svg">
<path d="M28.9129 3.72136C27.8526 4.18644 26.7229 4.49471 25.545 4.64439C26.7567 3.92093 27.6816 2.78408 28.1163 1.41379C26.9866 2.08735 25.7393 2.56312 24.41 2.82862C23.3373 1.68642 21.8084 0.979004 20.1405 0.979004C16.9046 0.979004 14.2994 3.60553 14.2994 6.82544C14.2994 7.28874 14.3386 7.73421 14.4349 8.15831C9.5756 7.92131 5.27586 5.59236 2.38739 2.04458C1.88311 2.9195 1.58731 3.92093 1.58731 4.99899C1.58731 7.02323 2.62973 8.81761 4.18355 9.85646C3.24448 9.83864 2.32324 9.56601 1.54276 9.13657C1.54276 9.15439 1.54276 9.17756 1.54276 9.20072C1.54276 12.0411 3.56879 14.4003 6.22561 14.9438C5.74985 15.0739 5.23131 15.1363 4.69318 15.1363C4.31897 15.1363 3.94121 15.1149 3.58661 15.0365C4.34392 17.3512 6.4929 19.0529 9.04816 19.1081C7.05955 20.6637 4.53459 21.601 1.80114 21.601C1.32181 21.601 0.862076 21.5796 0.402344 21.5208C2.99145 23.1905 6.0599 24.1438 9.3689 24.1438C20.1245 24.1438 26.0048 15.2343 26.0048 7.51147C26.0048 7.2531 25.9959 7.00363 25.9834 6.75595C27.1434 5.9327 28.1181 4.90454 28.9129 3.72136Z" fill="#084C3F"/>
</svg>
